<svg width="186" height="56" viewBox="0 0 186 56" fill="none" xmlns="http://www.w3.org/2000/svg">
<g filter="url(#filter0_d_414_51816)">
<path d="M162.594 39.4844C162.594 39.4323 162.646 39.237 162.75 38.8984C162.828 38.5599 162.932 38.1953 163.062 37.8047C163.193 37.4401 163.336 37.1016 163.492 36.7891C163.648 36.4766 163.818 36.3203 164 36.3203C164 37.5182 164.221 38.651 164.664 39.7188C165.107 40.8125 165.706 41.763 166.461 42.5703C167.242 43.3776 168.154 44.0026 169.195 44.4453C170.263 44.9141 171.396 45.1484 172.594 45.1484C173.688 45.1484 174.612 44.9271 175.367 44.4844C176.122 44.0677 176.747 43.4948 177.242 42.7656C177.737 42.0365 178.115 41.2161 178.375 40.3047C178.661 39.3932 178.87 38.4427 179 37.4531C179.13 36.4896 179.208 35.5391 179.234 34.6016C179.26 33.6901 179.273 32.8438 179.273 32.0625C179.273 31.8021 179.26 31.4115 179.234 30.8906C179.234 30.3958 179.234 29.901 179.234 29.4062C179.234 28.9115 179.234 28.4688 179.234 28.0781C179.234 27.7135 179.234 27.5182 179.234 27.4922C179.234 27.388 179.208 27.1406 179.156 26.75C179.13 26.3594 179.078 25.9427 179 25.5C178.948 25.0312 178.896 24.5885 178.844 24.1719C178.792 23.7552 178.753 23.4427 178.727 23.2344C178.701 23.1302 178.661 22.9479 178.609 22.6875C178.583 22.4271 178.531 22.1536 178.453 21.8672C178.375 21.5807 178.271 21.3073 178.141 21.0469C178.01 20.7865 177.841 20.6042 177.633 20.5C177.32 21.125 176.878 21.7891 176.305 22.4922C175.758 23.1693 175.12 23.8073 174.391 24.4062C173.688 24.9792 172.945 25.4609 172.164 25.8516C171.409 26.2422 170.641 26.4375 169.859 26.4375C169.26 26.4375 168.753 26.2812 168.336 25.9688C167.945 25.6302 167.62 25.2135 167.359 24.7188C167.125 24.224 166.93 23.651 166.773 23C166.643 22.349 166.552 21.7109 166.5 21.0859C166.448 20.4349 166.409 19.8359 166.383 19.2891C166.383 18.7161 166.383 18.2474 166.383 17.8828C166.383 17.2578 166.435 16.5677 166.539 15.8125C166.643 15.0573 166.76 14.276 166.891 13.4688C167.047 12.6615 167.19 11.8672 167.32 11.0859C167.477 10.2786 167.62 9.53646 167.75 8.85938C167.958 8.44271 168.232 8.23438 168.57 8.23438C168.596 8.23438 168.635 8.2474 168.688 8.27344C168.766 8.27344 168.818 8.27344 168.844 8.27344C168.844 8.50781 168.831 8.9375 168.805 9.5625C168.805 10.1615 168.792 10.8516 168.766 11.6328C168.74 12.4141 168.701 13.2604 168.648 14.1719C168.622 15.0573 168.596 15.8906 168.57 16.6719C168.57 17.4531 168.557 18.1432 168.531 18.7422C168.531 19.3411 168.544 19.7578 168.57 19.9922C168.57 20.2526 168.583 20.6302 168.609 21.125C168.635 21.5938 168.701 22.0625 168.805 22.5312C168.909 23 169.065 23.4167 169.273 23.7812C169.508 24.1458 169.859 24.3281 170.328 24.3281C170.719 24.3281 171.161 24.2891 171.656 24.2109C172.151 24.1328 172.529 23.9766 172.789 23.7422C173.154 23.4297 173.596 23.026 174.117 22.5312C174.638 22.0104 175.133 21.4896 175.602 20.9688C176.07 20.4479 176.474 19.9922 176.812 19.6016C177.177 19.2109 177.359 18.9766 177.359 18.8984L178.18 7.25781C178.18 7.15365 178.219 7.0625 178.297 6.98438C178.375 6.90625 178.466 6.85417 178.57 6.82812C178.701 6.77604 178.818 6.73698 178.922 6.71094C179.052 6.6849 179.169 6.67188 179.273 6.67188C179.612 6.67188 179.859 6.78906 180.016 7.02344C180.198 7.23177 180.393 7.49219 180.602 7.80469C180.393 9.65365 180.328 11.6328 180.406 13.7422C180.484 15.8255 180.602 17.9349 180.758 20.0703C180.914 22.1797 181.07 24.2891 181.227 26.3984C181.383 28.4818 181.461 30.4479 181.461 32.2969C181.461 32.5052 181.461 32.8828 181.461 33.4297C181.461 34.0026 181.448 34.6016 181.422 35.2266C181.422 35.8516 181.409 36.4375 181.383 36.9844C181.357 37.5573 181.344 37.9479 181.344 38.1562C181.24 39.25 180.94 40.3307 180.445 41.3984C179.951 42.4922 179.312 43.4818 178.531 44.3672C177.75 45.2526 176.839 45.9688 175.797 46.5156C174.781 47.0625 173.688 47.3359 172.516 47.3359C171.995 47.3359 171.37 47.2318 170.641 47.0234C169.938 46.8411 169.221 46.5677 168.492 46.2031C167.763 45.8646 167.047 45.4479 166.344 44.9531C165.641 44.4844 165.016 43.9635 164.469 43.3906C163.922 42.8177 163.479 42.1927 163.141 41.5156C162.776 40.8646 162.594 40.1875 162.594 39.4844Z" fill="url(#paint0_linear_414_51816)" shape-rendering="crispEdges"/>
</g>
<g filter="url(#filter1_d_414_51816)">
<path d="M146.344 22.6484C146.318 22.5703 146.305 22.401 146.305 22.1406C146.305 21.8542 146.305 21.6589 146.305 21.5547C146.305 21.4766 146.292 21.3594 146.266 21.2031C146.266 21.0208 146.279 20.8516 146.305 20.6953C146.331 20.5391 146.383 20.3958 146.461 20.2656C146.539 20.1354 146.669 20.0443 146.852 19.9922C146.826 20.513 146.943 21.0208 147.203 21.5156C147.464 22.0104 147.802 22.5052 148.219 23C148.635 23.4688 149.104 23.9245 149.625 24.3672C150.172 24.7839 150.732 25.1484 151.305 25.4609C151.904 25.7474 152.477 25.9818 153.023 26.1641C153.596 26.3464 154.13 26.4375 154.625 26.4375C155.536 26.4375 156.461 26.2812 157.398 25.9688C158.336 25.6562 159.169 25.2266 159.898 24.6797C160.654 24.1068 161.266 23.4167 161.734 22.6094C162.203 21.8021 162.438 20.8906 162.438 19.875C162.438 19.25 162.242 18.7292 161.852 18.3125C161.487 17.8698 160.992 17.4922 160.367 17.1797C159.768 16.8411 159.078 16.5677 158.297 16.3594C157.542 16.125 156.747 15.9036 155.914 15.6953C155.107 15.487 154.312 15.2656 153.531 15.0312C152.75 14.7969 152.047 14.5234 151.422 14.2109C150.823 13.8724 150.341 13.4818 149.977 13.0391C149.612 12.5964 149.43 12.0365 149.43 11.3594C149.43 10.7604 149.56 10.2396 149.82 9.79688C150.107 9.32812 150.471 8.91146 150.914 8.54688C151.383 8.18229 151.904 7.88281 152.477 7.64844C153.076 7.38802 153.674 7.17969 154.273 7.02344C154.872 6.84115 155.458 6.72396 156.031 6.67188C156.63 6.59375 157.164 6.55469 157.633 6.55469C158.232 6.55469 158.753 6.56771 159.195 6.59375C159.664 6.59375 160.094 6.65885 160.484 6.78906C160.875 6.91927 161.227 7.1276 161.539 7.41406C161.852 7.70052 162.125 8.15625 162.359 8.78125C162.255 8.98958 162.138 9.13281 162.008 9.21094C161.904 9.26302 161.747 9.28906 161.539 9.28906C161.253 9.28906 161.005 9.1849 160.797 8.97656C160.615 8.74219 160.419 8.48177 160.211 8.19531C160.133 8.19531 159.977 8.19531 159.742 8.19531C159.508 8.16927 159.26 8.15625 159 8.15625C158.766 8.15625 158.531 8.15625 158.297 8.15625C158.089 8.15625 157.932 8.15625 157.828 8.15625C157.516 8.15625 157.125 8.16927 156.656 8.19531C156.214 8.22135 155.732 8.27344 155.211 8.35156C154.716 8.42969 154.221 8.54688 153.727 8.70312C153.258 8.85938 152.815 9.05469 152.398 9.28906C152.008 9.52344 151.682 9.82292 151.422 10.1875C151.188 10.526 151.07 10.9297 151.07 11.3984C151.07 11.8151 151.148 12.1406 151.305 12.375C151.487 12.6094 151.786 12.8438 152.203 13.0781C152.385 13.0781 152.659 13.1432 153.023 13.2734C153.388 13.3776 153.792 13.4948 154.234 13.625C154.703 13.7552 155.185 13.8984 155.68 14.0547C156.201 14.1849 156.682 14.3281 157.125 14.4844C157.594 14.6406 157.997 14.7839 158.336 14.9141C158.701 15.0443 158.974 15.1354 159.156 15.1875C159.781 15.4219 160.419 15.6562 161.07 15.8906C161.721 16.125 162.307 16.4245 162.828 16.7891C163.349 17.1276 163.766 17.5573 164.078 18.0781C164.391 18.5729 164.547 19.2109 164.547 19.9922C164.547 21.1641 164.234 22.2448 163.609 23.2344C162.984 24.1979 162.19 25.0443 161.227 25.7734C160.289 26.4766 159.247 27.0365 158.102 27.4531C156.982 27.8438 155.888 28.0391 154.82 28.0391C153.883 28.0391 153.01 27.9089 152.203 27.6484C151.396 27.362 150.641 26.9714 149.938 26.4766C149.26 25.9818 148.622 25.4219 148.023 24.7969C147.424 24.1458 146.865 23.4297 146.344 22.6484Z" fill="url(#paint1_linear_414_51816)" shape-rendering="crispEdges"/>
</g>
<g filter="url(#filter2_d_414_51816)">
<path d="M123.805 23.6641C123.805 22.6745 123.922 21.6198 124.156 20.5C124.417 19.3802 124.768 18.2865 125.211 17.2188C125.654 16.125 126.188 15.0964 126.812 14.1328C127.464 13.1693 128.167 12.3229 128.922 11.5938C129.677 10.8385 130.497 10.2396 131.383 9.79688C132.268 9.35417 133.193 9.13281 134.156 9.13281C134.365 9.13281 134.664 9.1849 135.055 9.28906C135.471 9.36719 135.888 9.48438 136.305 9.64062C136.721 9.77083 137.086 9.9401 137.398 10.1484C137.711 10.3568 137.867 10.5651 137.867 10.7734L131.109 11.6328C130.615 11.6328 130.146 11.8802 129.703 12.375C129.26 12.8438 128.844 13.4557 128.453 14.2109C128.089 14.9401 127.75 15.7734 127.438 16.7109C127.151 17.6224 126.891 18.5208 126.656 19.4062C126.448 20.2917 126.279 21.099 126.148 21.8281C126.044 22.5573 125.992 23.1042 125.992 23.4688V23.8594C125.992 24.0156 125.992 24.1979 125.992 24.4062C126.018 24.5885 126.031 24.7839 126.031 24.9922V25.3438C126.031 25.3958 126.083 25.474 126.188 25.5781L126.852 26.2031C126.956 26.3333 127.034 26.4115 127.086 26.4375C127.112 26.4375 127.151 26.4375 127.203 26.4375H127.32C127.919 26.4375 128.492 26.2812 129.039 25.9688C129.612 25.6562 130.133 25.2786 130.602 24.8359C131.096 24.3932 131.539 23.9245 131.93 23.4297C132.346 22.9089 132.698 22.4792 132.984 22.1406C133.141 21.9583 133.258 21.5677 133.336 20.9688C133.44 20.3438 133.531 19.6406 133.609 18.8594C133.714 18.0521 133.818 17.2057 133.922 16.3203C134.026 15.4089 134.156 14.5885 134.312 13.8594C134.469 13.1042 134.651 12.4922 134.859 12.0234C135.094 11.5547 135.38 11.3203 135.719 11.3203C135.745 11.3203 135.797 11.3203 135.875 11.3203H135.953C135.953 11.4505 135.953 11.776 135.953 12.2969C135.979 12.8177 135.992 13.4427 135.992 14.1719C136.018 14.875 136.031 15.6302 136.031 16.4375C136.057 17.2448 136.07 18.013 136.07 18.7422C136.07 19.4453 136.083 20.0573 136.109 20.5781C136.135 21.099 136.161 21.4245 136.188 21.5547C136.188 21.6849 136.253 21.8802 136.383 22.1406C136.513 22.375 136.656 22.6094 136.812 22.8438C136.969 23.0781 137.138 23.2865 137.32 23.4688C137.503 23.651 137.646 23.7422 137.75 23.7422H144.391C144.391 24.0286 144.26 24.276 144 24.4844C143.766 24.6927 143.466 24.875 143.102 25.0312C142.737 25.1875 142.333 25.3307 141.891 25.4609C141.448 25.5651 141.018 25.6562 140.602 25.7344C140.185 25.7865 139.794 25.8255 139.43 25.8516C139.065 25.8776 138.792 25.8906 138.609 25.8906C137.568 25.8906 136.695 25.6562 135.992 25.1875C135.289 24.7188 134.638 24.0677 134.039 23.2344C133.701 23.651 133.297 24.1198 132.828 24.6406C132.385 25.1615 131.878 25.6693 131.305 26.1641C130.758 26.6328 130.159 27.0365 129.508 27.375C128.883 27.7135 128.258 27.9219 127.633 28C126.826 28.1042 126.174 28.0521 125.68 27.8438C125.211 27.6094 124.833 27.2969 124.547 26.9062C124.26 26.5156 124.065 26.0469 123.961 25.5C123.857 24.9271 123.805 24.3151 123.805 23.6641Z" fill="url(#paint2_linear_414_51816)" shape-rendering="crispEdges"/>
</g>
<g filter="url(#filter3_d_414_51816)">
<path d="M106.461 15.7344C106.461 14.9531 106.461 14.263 106.461 13.6641C106.487 13.0651 106.513 12.4792 106.539 11.9062C106.591 11.3073 106.656 10.6823 106.734 10.0312C106.812 9.38021 106.904 8.61198 107.008 7.72656C108.076 7.33594 109.039 7.02344 109.898 6.78906C110.784 6.55469 111.643 6.3724 112.477 6.24219C113.336 6.11198 114.195 6.03385 115.055 6.00781C115.94 5.95573 116.891 5.92969 117.906 5.92969C118.089 5.92969 118.336 5.94271 118.648 5.96875C118.961 5.96875 119.273 5.98177 119.586 6.00781C119.898 6.03385 120.185 6.04688 120.445 6.04688C120.706 6.04688 120.875 6.0599 120.953 6.08594L122.008 6.63281L121.422 7.14062C121.24 7.11458 120.888 7.10156 120.367 7.10156C119.872 7.10156 119.339 7.10156 118.766 7.10156C118.193 7.10156 117.659 7.10156 117.164 7.10156C116.669 7.10156 116.318 7.11458 116.109 7.14062C115.745 7.19271 115.302 7.27083 114.781 7.375C114.26 7.45312 113.714 7.54427 113.141 7.64844C112.594 7.7526 112.047 7.86979 111.5 8C110.979 8.10417 110.497 8.20833 110.055 8.3125C109.638 8.41667 109.286 8.50781 109 8.58594C108.74 8.66406 108.609 8.72917 108.609 8.78125V15.7344H118.961C118.961 15.9948 118.753 16.2031 118.336 16.3594C117.945 16.5156 117.411 16.6589 116.734 16.7891C116.083 16.8932 115.367 16.9974 114.586 17.1016C113.831 17.1797 113.076 17.2578 112.32 17.3359C111.591 17.388 110.94 17.4531 110.367 17.5312C109.794 17.6094 109.378 17.7135 109.117 17.8438C109.117 17.974 109.117 18.1953 109.117 18.5078C109.117 18.7943 109.104 19.1068 109.078 19.4453C109.078 19.7839 109.078 20.1224 109.078 20.4609V21.0859C109.078 21.5286 109.065 22.0625 109.039 22.6875C109.039 23.2865 109.078 23.8724 109.156 24.4453C109.234 24.9922 109.417 25.4609 109.703 25.8516C110.016 26.2422 110.497 26.4375 111.148 26.4375C112.034 26.4375 112.906 26.4115 113.766 26.3594C114.651 26.3073 115.536 26.2552 116.422 26.2031C117.307 26.125 118.18 26.0469 119.039 25.9688C119.924 25.8906 120.81 25.8516 121.695 25.8516H122.516C122.333 26.112 122.099 26.3724 121.812 26.6328C121.526 26.8932 121.201 27.1276 120.836 27.3359C120.497 27.5182 120.146 27.6745 119.781 27.8047C119.443 27.9349 119.104 28 118.766 28H110.211C109.404 28 108.74 27.7656 108.219 27.2969C107.724 26.8021 107.333 26.1771 107.047 25.4219C106.76 24.6667 106.565 23.8333 106.461 22.9219C106.383 21.9844 106.331 21.0599 106.305 20.1484C106.305 19.2109 106.331 18.3516 106.383 17.5703C106.435 16.7891 106.461 16.1771 106.461 15.7344Z" fill="url(#paint3_linear_414_51816)" shape-rendering="crispEdges"/>
</g>
<g filter="url(#filter4_d_414_51816)">
<path d="M86.0312 16.1641C85.9271 16.1641 85.7969 16.1771 85.6406 16.2031L85.3672 16.2422L84.3125 25.3438C84.2604 25.6562 84.1693 25.9167 84.0391 26.125C83.9089 26.3073 83.7396 26.4505 83.5312 26.5547C83.349 26.6589 83.1276 26.724 82.8672 26.75C82.6068 26.776 82.3333 26.7891 82.0469 26.7891C82.0469 25.9297 82.0859 25.1484 82.1641 24.4453C82.2682 23.7422 82.4375 22.974 82.6719 22.1406V1.125C82.8281 1.125 82.9974 1.17708 83.1797 1.28125C83.388 1.35938 83.5703 1.47656 83.7266 1.63281C83.8828 1.76302 84.013 1.89323 84.1172 2.02344C84.2474 2.15365 84.3125 2.25781 84.3125 2.33594L85.3672 13.8203L96.6172 7.14062H97.8281C97.8281 7.66146 97.6068 8.15625 97.1641 8.625C96.7474 9.06771 96.2005 9.51042 95.5234 9.95312C94.8464 10.3698 94.1042 10.7604 93.2969 11.125C92.4896 11.4896 91.7214 11.8542 90.9922 12.2188C90.2891 12.5573 89.651 12.8958 89.0781 13.2344C88.5312 13.5469 88.1797 13.8464 88.0234 14.1328C88.9089 14.7057 89.6771 15.4219 90.3281 16.2812C90.9792 17.1146 91.5781 17.987 92.125 18.8984C92.6979 19.8099 93.2578 20.7214 93.8047 21.6328C94.3516 22.5443 94.9766 23.3516 95.6797 24.0547C96.4089 24.7578 97.2292 25.3438 98.1406 25.8125C99.0521 26.2552 100.172 26.4766 101.5 26.4766C101.839 26.4766 102.138 26.4115 102.398 26.2812C102.659 26.151 102.919 26.0078 103.18 25.8516C103.44 25.6953 103.701 25.5521 103.961 25.4219C104.221 25.2917 104.521 25.2266 104.859 25.2266C104.859 25.7995 104.716 26.2682 104.43 26.6328C104.169 26.9974 103.844 27.2969 103.453 27.5312C103.062 27.7396 102.62 27.8828 102.125 27.9609C101.656 28.0391 101.188 28.0781 100.719 28.0781C99.4167 28.0781 98.2839 27.9089 97.3203 27.5703C96.3828 27.2057 95.5625 26.75 94.8594 26.2031C94.1562 25.6562 93.5573 25.0312 93.0625 24.3281C92.5677 23.599 92.112 22.8698 91.6953 22.1406C91.2786 21.3854 90.875 20.6432 90.4844 19.9141C90.1198 19.1849 89.7292 18.5469 89.3125 18C88.8958 17.4531 88.4271 17.0104 87.9062 16.6719C87.3854 16.3333 86.7604 16.1641 86.0312 16.1641Z" fill="url(#paint4_linear_414_51816)" shape-rendering="crispEdges"/>
</g>
<g filter="url(#filter5_d_414_51816)">
<path d="M59.625 23.6641C59.625 22.6745 59.7422 21.6198 59.9766 20.5C60.237 19.3802 60.5885 18.2865 61.0312 17.2188C61.474 16.125 62.0078 15.0964 62.6328 14.1328C63.2839 13.1693 63.987 12.3229 64.7422 11.5938C65.4974 10.8385 66.3177 10.2396 67.2031 9.79688C68.0885 9.35417 69.013 9.13281 69.9766 9.13281C70.1849 9.13281 70.4844 9.1849 70.875 9.28906C71.2917 9.36719 71.7083 9.48438 72.125 9.64062C72.5417 9.77083 72.9062 9.9401 73.2188 10.1484C73.5312 10.3568 73.6875 10.5651 73.6875 10.7734L66.9297 11.6328C66.4349 11.6328 65.9661 11.8802 65.5234 12.375C65.0807 12.8438 64.6641 13.4557 64.2734 14.2109C63.9089 14.9401 63.5703 15.7734 63.2578 16.7109C62.9714 17.6224 62.7109 18.5208 62.4766 19.4062C62.2682 20.2917 62.099 21.099 61.9688 21.8281C61.8646 22.5573 61.8125 23.1042 61.8125 23.4688V23.8594C61.8125 24.0156 61.8125 24.1979 61.8125 24.4062C61.8385 24.5885 61.8516 24.7839 61.8516 24.9922V25.3438C61.8516 25.3958 61.9036 25.474 62.0078 25.5781L62.6719 26.2031C62.776 26.3333 62.8542 26.4115 62.9062 26.4375C62.9323 26.4375 62.9714 26.4375 63.0234 26.4375H63.1406C63.7396 26.4375 64.3125 26.2812 64.8594 25.9688C65.4323 25.6562 65.9531 25.2786 66.4219 24.8359C66.9167 24.3932 67.3594 23.9245 67.75 23.4297C68.1667 22.9089 68.5182 22.4792 68.8047 22.1406C68.9609 21.9583 69.0781 21.5677 69.1562 20.9688C69.2604 20.3438 69.3516 19.6406 69.4297 18.8594C69.5339 18.0521 69.638 17.2057 69.7422 16.3203C69.8464 15.4089 69.9766 14.5885 70.1328 13.8594C70.2891 13.1042 70.4714 12.4922 70.6797 12.0234C70.9141 11.5547 71.2005 11.3203 71.5391 11.3203C71.5651 11.3203 71.6172 11.3203 71.6953 11.3203H71.7734C71.7734 11.4505 71.7734 11.776 71.7734 12.2969C71.7995 12.8177 71.8125 13.4427 71.8125 14.1719C71.8385 14.875 71.8516 15.6302 71.8516 16.4375C71.8776 17.2448 71.8906 18.013 71.8906 18.7422C71.8906 19.4453 71.9036 20.0573 71.9297 20.5781C71.9557 21.099 71.9818 21.4245 72.0078 21.5547C72.0078 21.6849 72.0729 21.8802 72.2031 22.1406C72.3333 22.375 72.4766 22.6094 72.6328 22.8438C72.7891 23.0781 72.9583 23.2865 73.1406 23.4688C73.3229 23.651 73.4661 23.7422 73.5703 23.7422H80.2109C80.2109 24.0286 80.0807 24.276 79.8203 24.4844C79.5859 24.6927 79.2865 24.875 78.9219 25.0312C78.5573 25.1875 78.1536 25.3307 77.7109 25.4609C77.2682 25.5651 76.8385 25.6562 76.4219 25.7344C76.0052 25.7865 75.6146 25.8255 75.25 25.8516C74.8854 25.8776 74.612 25.8906 74.4297 25.8906C73.388 25.8906 72.5156 25.6562 71.8125 25.1875C71.1094 24.7188 70.4583 24.0677 69.8594 23.2344C69.5208 23.651 69.1172 24.1198 68.6484 24.6406C68.2057 25.1615 67.6979 25.6693 67.125 26.1641C66.5781 26.6328 65.9792 27.0365 65.3281 27.375C64.7031 27.7135 64.0781 27.9219 63.4531 28C62.6458 28.1042 61.9948 28.0521 61.5 27.8438C61.0312 27.6094 60.6536 27.2969 60.3672 26.9062C60.0807 26.5156 59.8854 26.0469 59.7812 25.5C59.6771 24.9271 59.625 24.3151 59.625 23.6641Z" fill="url(#paint5_linear_414_51816)" shape-rendering="crispEdges"/>
</g>
<g filter="url(#filter6_d_414_51816)">
<path d="M42.3984 16.2422C42.3984 15.0443 42.5286 13.9375 42.7891 12.9219C43.0755 11.8802 43.5182 10.9948 44.1172 10.2656C44.7161 9.53646 45.4844 8.96354 46.4219 8.54688C47.3854 8.13021 48.5182 7.92188 49.8203 7.92188C50.5755 7.92188 51.2266 7.98698 51.7734 8.11719C52.3464 8.2474 52.8151 8.48177 53.1797 8.82031C53.5703 9.13281 53.8568 9.5625 54.0391 10.1094C54.2214 10.6302 54.3125 11.2812 54.3125 12.0625C54.3125 12.8698 54.1432 13.5599 53.8047 14.1328C53.4922 14.6797 53.0625 15.1354 52.5156 15.5C51.9688 15.8646 51.3568 16.138 50.6797 16.3203C50.0026 16.5026 49.3125 16.5938 48.6094 16.5938C48.4792 16.5938 48.2969 16.6198 48.0625 16.6719C47.8281 16.724 47.5547 16.7891 47.2422 16.8672C46.9557 16.9193 46.6562 16.9844 46.3438 17.0625C46.0312 17.1406 45.7318 17.1927 45.4453 17.2188C45.1849 17.2188 44.9635 17.2057 44.7812 17.1797C44.625 17.1276 44.5469 17.0104 44.5469 16.8281C44.5469 16.8021 44.599 16.724 44.7031 16.5938C44.8333 16.4375 44.9635 16.2812 45.0938 16.125C45.224 15.9688 45.3411 15.8125 45.4453 15.6562L45.6406 15.4609C46.3438 15.3568 47.099 15.2786 47.9062 15.2266C48.7396 15.1484 49.4948 15.0052 50.1719 14.7969C50.875 14.5885 51.4609 14.25 51.9297 13.7812C52.3984 13.3125 52.6328 12.6224 52.6328 11.7109C52.6328 11.2422 52.5547 10.8776 52.3984 10.6172C52.2682 10.3307 52.0599 10.1094 51.7734 9.95312C51.513 9.79688 51.2005 9.69271 50.8359 9.64062C50.4714 9.58854 50.0807 9.5625 49.6641 9.5625C48.7526 9.5625 47.9583 9.71875 47.2812 10.0312C46.6302 10.3177 46.1094 10.7344 45.7188 11.2812C45.3281 11.8281 45.0286 12.4792 44.8203 13.2344C44.638 13.9896 44.5469 14.8229 44.5469 15.7344C44.5469 16.3073 44.5599 16.9844 44.5859 17.7656C44.612 18.5208 44.6771 19.2891 44.7812 20.0703C44.9115 20.8516 45.0807 21.6328 45.2891 22.4141C45.4974 23.1693 45.7708 23.8464 46.1094 24.4453C46.474 25.0443 46.8906 25.526 47.3594 25.8906C47.8542 26.2552 48.4401 26.4375 49.1172 26.4375C49.2474 26.4375 49.4427 26.4115 49.7031 26.3594C49.9635 26.3073 50.224 26.2552 50.4844 26.2031C50.7708 26.125 51.0312 26.0599 51.2656 26.0078C51.526 25.9557 51.7214 25.9036 51.8516 25.8516C52.0599 25.7734 52.3724 25.6432 52.7891 25.4609C53.2057 25.2786 53.6745 25.0703 54.1953 24.8359C54.7422 24.6016 55.3021 24.3411 55.875 24.0547C56.4479 23.7682 56.9948 23.5078 57.5156 23.2734C58.0365 23.0391 58.5052 22.8177 58.9219 22.6094C59.3646 22.375 59.6771 22.2188 59.8594 22.1406C59.8854 22.1667 59.8984 22.2448 59.8984 22.375C59.8984 22.5052 59.8984 22.5964 59.8984 22.6484C59.8984 23.1172 59.6641 23.5859 59.1953 24.0547C58.7526 24.4974 58.1797 24.9271 57.4766 25.3438C56.7734 25.7344 55.9792 26.099 55.0938 26.4375C54.2083 26.776 53.362 27.0625 52.5547 27.2969C51.7474 27.5312 51.0052 27.7266 50.3281 27.8828C49.651 28.013 49.1432 28.0781 48.8047 28.0781C47.9974 28.0781 47.2682 27.8958 46.6172 27.5312C45.9661 27.1667 45.4062 26.6719 44.9375 26.0469C44.4688 25.4219 44.0651 24.7057 43.7266 23.8984C43.388 23.0911 43.1146 22.2578 42.9062 21.3984C42.724 20.5391 42.5938 19.6667 42.5156 18.7812C42.4375 17.8698 42.3984 17.0234 42.3984 16.2422Z" fill="url(#paint6_linear_414_51816)" shape-rendering="crispEdges"/>
</g>
<g filter="url(#filter7_d_414_51816)">
<path d="M23.8047 47.2578C23.8047 46.8932 23.7917 46.3203 23.7656 45.5391C23.7656 44.7839 23.7656 43.9245 23.7656 42.9609C23.7656 41.9974 23.7526 40.9818 23.7266 39.9141C23.7266 38.8464 23.7266 37.8307 23.7266 36.8672V32.5703C23.7266 31.5807 23.7135 30.4349 23.6875 29.1328C23.6615 27.8307 23.6354 26.4635 23.6094 25.0312C23.5833 23.5729 23.5703 22.0755 23.5703 20.5391C23.5703 19.0026 23.5703 17.4922 23.5703 16.0078C23.5964 14.4974 23.6484 13.0651 23.7266 11.7109C23.8307 10.3307 23.9479 9.09375 24.0781 8C24.1042 7.97396 24.1953 7.96094 24.3516 7.96094C24.5078 7.9349 24.599 7.92188 24.625 7.92188C24.9896 7.92188 25.2891 8.01302 25.5234 8.19531C25.7839 8.35156 26.0182 8.63802 26.2266 9.05469C27.0339 9.0026 27.9193 8.95052 28.8828 8.89844C29.8724 8.84635 30.862 8.83333 31.8516 8.85938C32.8672 8.88542 33.8307 8.98958 34.7422 9.17188C35.6797 9.35417 36.513 9.66667 37.2422 10.1094C37.9714 10.526 38.5443 11.112 38.9609 11.8672C39.4036 12.5964 39.625 13.5339 39.625 14.6797C39.4948 17.2578 39.013 19.4453 38.1797 21.2422C37.3724 23.013 36.3307 24.3932 35.0547 25.3828C33.8047 26.3724 32.3984 26.9844 30.8359 27.2188C29.2995 27.4271 27.763 27.2839 26.2266 26.7891L26.1875 45.1094C26.1875 45.1875 26.1484 45.3698 26.0703 45.6562C26.0182 45.9688 25.9271 46.2812 25.7969 46.5938C25.6667 46.9062 25.4974 47.1927 25.2891 47.4531C25.0807 47.7135 24.8594 47.8438 24.625 47.8438C24.2604 47.8438 23.987 47.6484 23.8047 47.2578ZM25.6406 13.6641C25.6406 14.4714 25.6536 15.3828 25.6797 16.3984C25.7318 17.388 25.7969 18.4036 25.875 19.4453C25.9792 20.4609 26.0703 21.4766 26.1484 22.4922C26.2526 23.4818 26.3438 24.4323 26.4219 25.3438H26.7344C26.8385 25.3438 26.9688 25.3568 27.125 25.3828C27.2812 25.3828 27.4115 25.3828 27.5156 25.3828H27.7891C28.987 25.3828 30.1589 25.1094 31.3047 24.5625C32.4766 24.0156 33.5182 23.2734 34.4297 22.3359C35.3411 21.3984 36.0703 20.3177 36.6172 19.0938C37.1901 17.8698 37.4766 16.5677 37.4766 15.1875C37.4766 14.0156 37.2292 13.1042 36.7344 12.4531C36.2396 11.8021 35.5885 11.3333 34.7812 11.0469C34 10.7604 33.1146 10.6042 32.125 10.5781C31.1354 10.5521 30.1589 10.5391 29.1953 10.5391C29.013 10.5391 28.7917 10.5521 28.5312 10.5781C28.2708 10.5781 28.0104 10.5911 27.75 10.6172C27.5156 10.6172 27.2943 10.6302 27.0859 10.6562C26.8776 10.6562 26.7604 10.6562 26.7344 10.6562L25.6797 11.7109V11.9844C25.6797 12.1406 25.6667 12.3229 25.6406 12.5312C25.6406 12.7135 25.6406 12.9219 25.6406 13.1562V13.6641Z" fill="url(#paint7_linear_414_51816)" shape-rendering="crispEdges"/>
</g>
<g filter="url(#filter8_d_414_51816)">
<path d="M5.32812 22.6484C5.32812 22.4401 5.41927 22.2969 5.60156 22.2188C5.8099 22.1406 5.99219 22.1016 6.14844 22.1016C6.27865 22.1016 6.47396 22.2057 6.73438 22.4141C7.02083 22.5964 7.35938 22.8307 7.75 23.1172C8.16667 23.4036 8.60938 23.7161 9.07812 24.0547C9.57292 24.3672 10.0938 24.6667 10.6406 24.9531C11.2135 25.2396 11.7865 25.487 12.3594 25.6953C12.9323 25.8776 13.5052 25.9688 14.0781 25.9688C14.9375 25.9688 15.7188 25.8646 16.4219 25.6562C17.125 25.4219 17.724 25.0833 18.2188 24.6406C18.7135 24.1979 19.1042 23.638 19.3906 22.9609C19.6771 22.2839 19.8203 21.5026 19.8203 20.6172C19.8203 19.1328 19.599 17.974 19.1562 17.1406C18.7396 16.2812 18.1797 15.6302 17.4766 15.1875C16.7734 14.7188 15.9661 14.4062 15.0547 14.25C14.1432 14.0677 13.2188 13.9245 12.2812 13.8203C11.3438 13.6901 10.4193 13.5339 9.50781 13.3516C8.59635 13.1693 7.78906 12.8568 7.08594 12.4141C6.38281 11.9453 5.82292 11.2812 5.40625 10.4219C4.98958 9.53646 4.78125 8.32552 4.78125 6.78906C4.78125 6.0599 4.82031 5.33073 4.89844 4.60156C4.97656 3.8724 5.15885 3.22135 5.44531 2.64844C5.75781 2.04948 6.17448 1.58073 6.69531 1.24219C7.24219 0.877604 7.94531 0.695312 8.80469 0.695312C9.29948 0.695312 9.84635 0.786458 10.4453 0.96875C11.0443 1.125 11.6042 1.3724 12.125 1.71094C12.6458 2.02344 13.0755 2.41406 13.4141 2.88281C13.7786 3.35156 13.9609 3.88542 13.9609 4.48438C13.9609 4.53646 13.9479 4.64062 13.9219 4.79688C13.9219 4.92708 13.9219 5.00521 13.9219 5.03125C13.5052 4.5625 13.1406 4.15885 12.8281 3.82031C12.5156 3.45573 12.1901 3.16927 11.8516 2.96094C11.513 2.72656 11.1354 2.55729 10.7188 2.45312C10.3281 2.34896 9.83333 2.29688 9.23438 2.29688C8.66146 2.29688 8.19271 2.40104 7.82812 2.60938C7.46354 2.79167 7.16406 3.0651 6.92969 3.42969C6.72135 3.76823 6.5651 4.17188 6.46094 4.64062C6.38281 5.08333 6.34375 5.55208 6.34375 6.04688C6.34375 7.45312 6.55208 8.5599 6.96875 9.36719C7.41146 10.1484 7.98438 10.7604 8.6875 11.2031C9.41667 11.6198 10.224 11.9193 11.1094 12.1016C12.0208 12.2839 12.9453 12.4401 13.8828 12.5703C14.8464 12.7005 15.7708 12.8828 16.6562 13.1172C17.5677 13.3516 18.375 13.7422 19.0781 14.2891C19.8073 14.8359 20.3802 15.5911 20.7969 16.5547C21.2135 17.5182 21.4219 18.8203 21.4219 20.4609C21.4219 21.7891 21.2266 22.9349 20.8359 23.8984C20.4714 24.862 19.9245 25.6432 19.1953 26.2422C18.4922 26.8411 17.6198 27.2969 16.5781 27.6094C15.5365 27.8958 14.3385 28.0391 12.9844 28.0391C12.724 28.0391 12.3464 27.974 11.8516 27.8438C11.3568 27.6875 10.8229 27.4792 10.25 27.2188C9.70312 26.9583 9.13021 26.6589 8.53125 26.3203C7.95833 25.9818 7.4375 25.6172 6.96875 25.2266C6.5 24.8359 6.10938 24.4193 5.79688 23.9766C5.48438 23.5339 5.32812 23.0911 5.32812 22.6484Z" fill="url(#paint8_linear_414_51816)" shape-rendering="crispEdges"/>
</g>
<defs>
<filter id="filter0_d_414_51816" x="158.594" y="6.67188" width="26.8672" height="48.6641" filterUnits="userSpaceOnUse" color-interpolation-filters="sRGB">
<feFlood flood-opacity="0" result="BackgroundImageFix"/>
<feColorMatrix in="SourceAlpha" type="matrix" values="0 0 0 0 0 0 0 0 0 0 0 0 0 0 0 0 0 0 127 0" result="hardAlpha"/>
<feOffset dy="4"/>
<feGaussianBlur stdDeviation="2"/>
<feComposite in2="hardAlpha" operator="out"/>
<feColorMatrix type="matrix" values="0 0 0 0 0 0 0 0 0 0 0 0 0 0 0 0 0 0 0.25 0"/>
<feBlend mode="normal" in2="BackgroundImageFix" result="effect1_dropShadow_414_51816"/>
<feBlend mode="normal" in="SourceGraphic" in2="effect1_dropShadow_414_51816" result="shape"/>
</filter>
<filter id="filter1_d_414_51816" x="142.266" y="6.55469" width="26.2812" height="29.4844" filterUnits="userSpaceOnUse" color-interpolation-filters="sRGB">
<feFlood flood-opacity="0" result="BackgroundImageFix"/>
<feColorMatrix in="SourceAlpha" type="matrix" values="0 0 0 0 0 0 0 0 0 0 0 0 0 0 0 0 0 0 127 0" result="hardAlpha"/>
<feOffset dy="4"/>
<feGaussianBlur stdDeviation="2"/>
<feComposite in2="hardAlpha" operator="out"/>
<feColorMatrix type="matrix" values="0 0 0 0 0 0 0 0 0 0 0 0 0 0 0 0 0 0 0.25 0"/>
<feBlend mode="normal" in2="BackgroundImageFix" result="effect1_dropShadow_414_51816"/>
<feBlend mode="normal" in="SourceGraphic" in2="effect1_dropShadow_414_51816" result="shape"/>
</filter>
<filter id="filter2_d_414_51816" x="119.805" y="9.13281" width="28.5859" height="26.9193" filterUnits="userSpaceOnUse" color-interpolation-filters="sRGB">
<feFlood flood-opacity="0" result="BackgroundImageFix"/>
<feColorMatrix in="SourceAlpha" type="matrix" values="0 0 0 0 0 0 0 0 0 0 0 0 0 0 0 0 0 0 127 0" result="hardAlpha"/>
<feOffset dy="4"/>
<feGaussianBlur stdDeviation="2"/>
<feComposite in2="hardAlpha" operator="out"/>
<feColorMatrix type="matrix" values="0 0 0 0 0 0 0 0 0 0 0 0 0 0 0 0 0 0 0.25 0"/>
<feBlend mode="normal" in2="BackgroundImageFix" result="effect1_dropShadow_414_51816"/>
<feBlend mode="normal" in="SourceGraphic" in2="effect1_dropShadow_414_51816" result="shape"/>
</filter>
<filter id="filter3_d_414_51816" x="102.305" y="5.92969" width="24.2109" height="30.0703" filterUnits="userSpaceOnUse" color-interpolation-filters="sRGB">
<feFlood flood-opacity="0" result="BackgroundImageFix"/>
<feColorMatrix in="SourceAlpha" type="matrix" values="0 0 0 0 0 0 0 0 0 0 0 0 0 0 0 0 0 0 127 0" result="hardAlpha"/>
<feOffset dy="4"/>
<feGaussianBlur stdDeviation="2"/>
<feComposite in2="hardAlpha" operator="out"/>
<feColorMatrix type="matrix" values="0 0 0 0 0 0 0 0 0 0 0 0 0 0 0 0 0 0 0.25 0"/>
<feBlend mode="normal" in2="BackgroundImageFix" result="effect1_dropShadow_414_51816"/>
<feBlend mode="normal" in="SourceGraphic" in2="effect1_dropShadow_414_51816" result="shape"/>
</filter>
<filter id="filter4_d_414_51816" x="78.0469" y="1.125" width="30.8125" height="34.9531" filterUnits="userSpaceOnUse" color-interpolation-filters="sRGB">
<feFlood flood-opacity="0" result="BackgroundImageFix"/>
<feColorMatrix in="SourceAlpha" type="matrix" values="0 0 0 0 0 0 0 0 0 0 0 0 0 0 0 0 0 0 127 0" result="hardAlpha"/>
<feOffset dy="4"/>
<feGaussianBlur stdDeviation="2"/>
<feComposite in2="hardAlpha" operator="out"/>
<feColorMatrix type="matrix" values="0 0 0 0 0 0 0 0 0 0 0 0 0 0 0 0 0 0 0.25 0"/>
<feBlend mode="normal" in2="BackgroundImageFix" result="effect1_dropShadow_414_51816"/>
<feBlend mode="normal" in="SourceGraphic" in2="effect1_dropShadow_414_51816" result="shape"/>
</filter>
<filter id="filter5_d_414_51816" x="55.625" y="9.13281" width="28.5859" height="26.9193" filterUnits="userSpaceOnUse" color-interpolation-filters="sRGB">
<feFlood flood-opacity="0" result="BackgroundImageFix"/>
<feColorMatrix in="SourceAlpha" type="matrix" values="0 0 0 0 0 0 0 0 0 0 0 0 0 0 0 0 0 0 127 0" result="hardAlpha"/>
<feOffset dy="4"/>
<feGaussianBlur stdDeviation="2"/>
<feComposite in2="hardAlpha" operator="out"/>
<feColorMatrix type="matrix" values="0 0 0 0 0 0 0 0 0 0 0 0 0 0 0 0 0 0 0.25 0"/>
<feBlend mode="normal" in2="BackgroundImageFix" result="effect1_dropShadow_414_51816"/>
<feBlend mode="normal" in="SourceGraphic" in2="effect1_dropShadow_414_51816" result="shape"/>
</filter>
<filter id="filter6_d_414_51816" x="38.3984" y="7.92188" width="25.5" height="28.1562" filterUnits="userSpaceOnUse" color-interpolation-filters="sRGB">
<feFlood flood-opacity="0" result="BackgroundImageFix"/>
<feColorMatrix in="SourceAlpha" type="matrix" values="0 0 0 0 0 0 0 0 0 0 0 0 0 0 0 0 0 0 127 0" result="hardAlpha"/>
<feOffset dy="4"/>
<feGaussianBlur stdDeviation="2"/>
<feComposite in2="hardAlpha" operator="out"/>
<feColorMatrix type="matrix" values="0 0 0 0 0 0 0 0 0 0 0 0 0 0 0 0 0 0 0.25 0"/>
<feBlend mode="normal" in2="BackgroundImageFix" result="effect1_dropShadow_414_51816"/>
<feBlend mode="normal" in="SourceGraphic" in2="effect1_dropShadow_414_51816" result="shape"/>
</filter>
<filter id="filter7_d_414_51816" x="19.5703" y="7.92188" width="24.0547" height="47.9219" filterUnits="userSpaceOnUse" color-interpolation-filters="sRGB">
<feFlood flood-opacity="0" result="BackgroundImageFix"/>
<feColorMatrix in="SourceAlpha" type="matrix" values="0 0 0 0 0 0 0 0 0 0 0 0 0 0 0 0 0 0 127 0" result="hardAlpha"/>
<feOffset dy="4"/>
<feGaussianBlur stdDeviation="2"/>
<feComposite in2="hardAlpha" operator="out"/>
<feColorMatrix type="matrix" values="0 0 0 0 0 0 0 0 0 0 0 0 0 0 0 0 0 0 0.25 0"/>
<feBlend mode="normal" in2="BackgroundImageFix" result="effect1_dropShadow_414_51816"/>
<feBlend mode="normal" in="SourceGraphic" in2="effect1_dropShadow_414_51816" result="shape"/>
</filter>
<filter id="filter8_d_414_51816" x="0.78125" y="0.695312" width="24.6406" height="35.3438" filterUnits="userSpaceOnUse" color-interpolation-filters="sRGB">
<feFlood flood-opacity="0" result="BackgroundImageFix"/>
<feColorMatrix in="SourceAlpha" type="matrix" values="0 0 0 0 0 0 0 0 0 0 0 0 0 0 0 0 0 0 127 0" result="hardAlpha"/>
<feOffset dy="4"/>
<feGaussianBlur stdDeviation="2"/>
<feComposite in2="hardAlpha" operator="out"/>
<feColorMatrix type="matrix" values="0 0 0 0 0 0 0 0 0 0 0 0 0 0 0 0 0 0 0.25 0"/>
<feBlend mode="normal" in2="BackgroundImageFix" result="effect1_dropShadow_414_51816"/>
<feBlend mode="normal" in="SourceGraphic" in2="effect1_dropShadow_414_51816" result="shape"/>
</filter>
<linearGradient id="paint0_linear_414_51816" x1="4.00001" y1="-10.5" x2="249.5" y2="57" gradientUnits="userSpaceOnUse">
<stop stop-color="#FA22ED" stop-opacity="0.8"/>
<stop offset="0.298611" stop-color="#2B0BF4" stop-opacity="0.561111"/>
<stop offset="0.725694" stop-color="#5F00FF" stop-opacity="0.198611"/>
<stop offset="1" stop-color="#AC24E8" stop-opacity="0.3"/>
</linearGradient>
<linearGradient id="paint1_linear_414_51816" x1="4" y1="-10.5" x2="249.5" y2="57" gradientUnits="userSpaceOnUse">
<stop stop-color="#FA22ED" stop-opacity="0.8"/>
<stop offset="0.298611" stop-color="#2B0BF4" stop-opacity="0.561111"/>
<stop offset="0.725694" stop-color="#5F00FF" stop-opacity="0.198611"/>
<stop offset="1" stop-color="#AC24E8" stop-opacity="0.3"/>
</linearGradient>
<linearGradient id="paint2_linear_414_51816" x1="4.00001" y1="-10.5" x2="249.5" y2="57" gradientUnits="userSpaceOnUse">
<stop stop-color="#FA22ED" stop-opacity="0.8"/>
<stop offset="0.298611" stop-color="#2B0BF4" stop-opacity="0.561111"/>
<stop offset="0.725694" stop-color="#5F00FF" stop-opacity="0.198611"/>
<stop offset="1" stop-color="#AC24E8" stop-opacity="0.3"/>
</linearGradient>
<linearGradient id="paint3_linear_414_51816" x1="4.00001" y1="-10.5" x2="249.5" y2="57" gradientUnits="userSpaceOnUse">
<stop stop-color="#FA22ED" stop-opacity="0.8"/>
<stop offset="0.298611" stop-color="#2B0BF4" stop-opacity="0.561111"/>
<stop offset="0.725694" stop-color="#5F00FF" stop-opacity="0.198611"/>
<stop offset="1" stop-color="#AC24E8" stop-opacity="0.3"/>
</linearGradient>
<linearGradient id="paint4_linear_414_51816" x1="4.00001" y1="-10.5" x2="249.5" y2="57" gradientUnits="userSpaceOnUse">
<stop stop-color="#FA22ED" stop-opacity="0.8"/>
<stop offset="0.298611" stop-color="#2B0BF4" stop-opacity="0.561111"/>
<stop offset="0.725694" stop-color="#5F00FF" stop-opacity="0.198611"/>
<stop offset="1" stop-color="#AC24E8" stop-opacity="0.3"/>
</linearGradient>
<linearGradient id="paint5_linear_414_51816" x1="4" y1="-10.5" x2="249.5" y2="57" gradientUnits="userSpaceOnUse">
<stop stop-color="#FA22ED" stop-opacity="0.8"/>
<stop offset="0.298611" stop-color="#2B0BF4" stop-opacity="0.561111"/>
<stop offset="0.725694" stop-color="#5F00FF" stop-opacity="0.198611"/>
<stop offset="1" stop-color="#AC24E8" stop-opacity="0.3"/>
</linearGradient>
<linearGradient id="paint6_linear_414_51816" x1="4" y1="-10.5" x2="249.5" y2="57" gradientUnits="userSpaceOnUse">
<stop stop-color="#FA22ED" stop-opacity="0.8"/>
<stop offset="0.298611" stop-color="#2B0BF4" stop-opacity="0.561111"/>
<stop offset="0.725694" stop-color="#5F00FF" stop-opacity="0.198611"/>
<stop offset="1" stop-color="#AC24E8" stop-opacity="0.3"/>
</linearGradient>
<linearGradient id="paint7_linear_414_51816" x1="4" y1="-10.5" x2="249.5" y2="57" gradientUnits="userSpaceOnUse">
<stop stop-color="#FA22ED" stop-opacity="0.8"/>
<stop offset="0.298611" stop-color="#2B0BF4" stop-opacity="0.561111"/>
<stop offset="0.725694" stop-color="#5F00FF" stop-opacity="0.198611"/>
<stop offset="1" stop-color="#AC24E8" stop-opacity="0.3"/>
</linearGradient>
<linearGradient id="paint8_linear_414_51816" x1="4" y1="-10.5" x2="249.5" y2="57" gradientUnits="userSpaceOnUse">
<stop stop-color="#FA22ED" stop-opacity="0.8"/>
<stop offset="0.298611" stop-color="#2B0BF4" stop-opacity="0.561111"/>
<stop offset="0.725694" stop-color="#5F00FF" stop-opacity="0.198611"/>
<stop offset="1" stop-color="#AC24E8" stop-opacity="0.3"/>
</linearGradient>
</defs>
</svg>
